<svg version="1.1" id="Layer_1" xmlns="http://www.w3.org/2000/svg" xmlns:xlink="http://www.w3.org/1999/xlink" x="0px" y="0px"
	 width="100%" viewBox="0 0 480 480" enable-background="new 0 0 480 480" xml:space="preserve">
<path fill="#000000" opacity="1.000000" stroke="none" 
	d="
M244.428467,481.000000 
	C238.916107,477.973969 237.818268,473.175781 237.839081,467.712616 
	C237.912094,448.546844 237.892242,429.380676 237.855988,410.214722 
	C237.852020,408.111115 238.379105,405.883270 236.760330,403.536102 
	C229.748215,405.609955 222.709122,407.987366 215.522232,409.768372 
	C175.082443,419.789856 136.261444,415.901184 99.577263,395.521393 
	C81.059792,385.234070 69.695686,368.827026 62.117847,349.593262 
	C54.356815,329.894470 51.117687,309.341064 50.521912,288.177521 
	C49.896111,265.947449 51.470417,243.970612 56.267784,222.304077 
	C64.477768,185.225006 84.876152,155.667099 113.533409,131.403595 
	C140.046097,108.955841 170.712189,93.721024 202.366699,80.143837 
	C220.186401,72.500641 232.765015,60.026375 237.160950,40.457142 
	C238.203766,35.814793 237.496826,31.161844 237.633560,26.516977 
	C237.712723,23.827936 237.835388,21.169035 238.836273,18.663889 
	C240.386154,14.784698 243.485550,13.014329 247.505814,13.227848 
	C251.312149,13.430007 254.040909,15.395732 255.300781,19.184263 
	C256.431335,22.583862 256.398468,26.078373 256.301208,29.573345 
	C255.691147,51.501846 266.563690,66.770943 285.029205,76.721771 
	C300.697510,85.165207 317.506256,91.363426 333.214783,99.831482 
	C362.557587,115.649437 389.060364,134.948029 409.447937,161.738815 
	C426.443085,184.071655 436.389648,209.261597 440.492004,237.039948 
	C443.472839,257.224396 444.647858,277.457581 443.171204,297.711487 
	C441.291199,323.498077 435.615570,348.319458 421.110626,370.440796 
	C407.687469,390.912415 387.506622,401.270660 365.130157,408.175873 
	C331.058868,418.690033 297.193420,416.852661 263.651917,405.414276 
	C261.612061,404.718658 259.554626,404.072205 257.490326,403.453156 
	C257.222290,403.372772 256.863342,403.595520 256.476929,403.695923 
	C255.595108,405.568542 256.027527,407.594574 256.023865,409.549561 
	C255.987183,429.215485 255.962555,448.881622 256.036255,468.547333 
	C256.054810,473.492798 255.118912,477.822357 250.220993,480.743408 
	C248.285645,481.000000 246.571289,481.000000 244.428467,481.000000 
M402.087280,182.375168 
	C391.318817,165.431519 377.415527,151.411011 361.614655,139.199615 
	C338.488464,121.326988 312.546143,108.499237 285.790680,97.160866 
	C270.885864,90.844528 258.248413,81.709198 249.173416,68.062820 
	C248.566895,67.150749 248.137207,65.895309 246.099777,66.010597 
	C235.243423,84.474319 217.103668,93.527802 197.982117,101.714203 
	C172.340286,112.692078 147.960648,126.029320 126.367210,143.998749 
	C102.497902,163.862106 84.539558,187.799454 75.824120,217.931580 
	C69.725319,239.017151 67.952477,260.693176 68.063477,282.580841 
	C68.157745,301.168549 70.385658,319.430450 76.418243,337.049194 
	C83.028275,356.354340 93.363304,372.912231 112.429314,382.363312 
	C152.770828,402.360840 193.542175,401.343231 234.620148,384.741272 
	C236.993881,383.781921 237.880661,382.265839 237.863510,379.784180 
	C237.796692,370.119812 237.729858,360.452789 237.900742,350.790955 
	C237.960068,347.436340 236.476074,346.071747 233.450150,345.358765 
	C222.588272,342.799530 212.874466,337.742828 203.936401,331.183014 
	C178.982437,312.868805 161.986282,288.215698 148.301254,260.966980 
	C145.302414,254.995895 146.496765,250.147034 151.335785,247.613449 
	C156.261780,245.034363 161.227173,247.169205 164.203430,253.199677 
	C171.609131,268.205048 180.540665,282.233917 191.315994,295.038605 
	C202.711441,308.580200 215.715225,320.061829 232.506180,326.647278 
	C236.462067,328.198792 237.924561,327.414825 237.906342,323.025757 
	C237.805283,298.697418 237.826950,274.368317 237.907700,250.039841 
	C237.917313,247.149597 237.020172,245.521667 234.196930,244.455185 
	C222.064774,239.872253 213.646255,231.139084 207.725586,219.854935 
	C199.988617,205.109161 196.715897,189.272705 196.692749,172.715286 
	C196.684998,167.168945 199.972198,163.524353 204.872467,163.271240 
	C209.977631,163.007538 214.054642,166.633942 214.211594,172.205734 
	C214.338547,176.712708 214.691727,181.172302 215.359695,185.611053 
	C217.138885,197.433792 220.424911,208.715240 227.930634,218.318298 
	C230.412567,221.493744 233.064835,224.642334 237.868088,225.760696 
	C237.868088,223.254745 237.868225,221.274460 237.868073,219.294174 
	C237.866074,193.966064 237.875061,168.637939 237.845840,143.309860 
	C237.842743,140.624451 237.881958,137.945175 238.870483,135.432480 
	C240.386246,131.579666 243.484390,129.583267 247.460663,129.861115 
	C251.339340,130.132126 254.529343,132.085388 255.323303,136.319138 
	C255.780045,138.754654 255.946823,141.276917 255.949341,143.760437 
	C255.991013,184.919250 255.975418,226.078156 256.016510,267.236969 
	C256.019043,269.785980 255.530441,272.466034 256.964844,275.157349 
	C263.695526,271.397369 268.255890,265.904480 272.360291,260.042084 
	C284.082245,243.299423 290.950165,224.422150 296.299957,204.895081 
	C298.069214,198.437149 302.449799,195.452530 307.890076,196.898544 
	C312.920410,198.235596 315.090332,203.004257 313.469360,209.418259 
	C309.044739,226.926117 302.863007,243.783371 293.913788,259.495941 
	C285.461609,274.335785 275.106323,287.452484 258.864929,294.551666 
	C256.160065,295.733917 255.947174,297.772339 255.959671,300.243134 
	C256.025391,313.240356 255.992050,326.238068 256.057861,339.235260 
	C256.066650,340.967285 255.490173,342.960999 257.592560,344.402527 
	C266.836029,342.402710 275.472473,338.658752 283.465607,333.404999 
	C306.629150,318.180176 320.529755,296.114044 329.745239,270.604828 
	C331.947174,264.509644 336.192902,262.036896 341.596863,263.740845 
	C346.432373,265.265564 348.665771,270.217224 346.667389,276.054504 
	C344.783752,281.556580 342.745361,287.054474 340.198517,292.272827 
	C323.226135,327.048218 298.765503,353.309143 259.433258,362.303558 
	C256.663910,362.936859 255.980301,364.483063 255.993591,366.890167 
	C256.016602,371.055786 256.113495,375.223785 256.005707,379.386292 
	C255.930573,382.287903 257.120392,383.862976 259.854767,384.983124 
	C293.019318,398.569153 326.782593,401.364166 361.287964,390.743591 
	C384.548645,383.584106 403.404114,371.044067 413.475586,347.762756 
	C420.829102,330.764282 424.642975,312.926819 425.530701,294.563202 
	C426.309692,278.448181 425.880768,262.340149 423.845367,246.227158 
	C420.988495,223.610779 414.835052,202.297562 402.087280,182.375168 
z"/>
</svg>